# xmcd
#
# Track frame offsets:
#	150
#	11450
#	38080
#	49080
#	60617
#	84975
#	98590
#	133772
#	147252
#	162960
#	182157
#	196017
#	226422
#	240610
#
# Disc length: 3564
#
# Revision: 1
# Processed by: cddbd v1.5.1PL0 Copyright (c) Steve Scherf et al.
# Submitted via: CDex 1.50
# Normalized: r0:DSETVAR1
#
DISCID=ad0dea0e
DTITLE=Various Artist - Jazz Piano for Swingin' Lovers
DYEAR=1900
DGENRE=Jazz
TTITLE0=Kenny Drew - Stella By Starlight
TTITLE1=The Three Sounds - Satin Doll
TTITLE2=George Shearing - Lullaby of Birdland
TTITLE3=Hank Jones - Summertime
TTITLE4=Duke Pearson - I'm a Fool to Want You
TTITLE5=Chick Corea - Pannonica
TTITLE6=Herbie Hancock - Round Midnight
TTITLE7=Bud Powell - Over the rainbow
TTITLE8=Wynton Kelly - Moonlight in Vermont
TTITLE9=Bill evans - I'm Getting Sentimental Over You
TTITLE10=Duke Ellington - Prelude to a Kisss
TTITLE11=Horace Parlan - There Is No Greater Love
TTITLE12=Nat Kong Cole - Polkadots and Moonbeams
TTITLE13=Sonny Clark - Blues In the Night
EXTD=
EXTT0=
EXTT1=
EXTT2=
EXTT3=
EXTT4=
EXTT5=
EXTT6=
EXTT7=
EXTT8=
EXTT9=
EXTT10=
EXTT11=
EXTT12=
EXTT13=
PLAYORDER=
